# xmcd
#
# Track frame offsets: 
#        150
#        15357
#        28807
#        41721
#        60403
#        73325
#        91762
#
# Disc length: 1389 seconds
#
# Revision: 0
# Processed by: cddbd v1.5.2PL0 Copyright (c) Steve Scherf et al.
# Submitted via: ExactAudioCopyFreeDBPlugin 1.0
#
DISCID=53056b07
DTITLE=Masontown - Age
DYEAR=2019
DGENRE=Bluegrass
TTITLE0=Age
TTITLE1=Sally Ann
TTITLE2=Walking the Dog
TTITLE3=Last of My Kind
TTITLE4=Come ALong Jody
TTITLE5=Lay Lady Lay
TTITLE6=Fly Around My Pretty Little Miss
EXTD=
EXTT0=
EXTT1=
EXTT2=
EXTT3=
EXTT4=
EXTT5=
EXTT6=
PLAYORDER=
